<svg class="icon" viewBox="0 0 1024 1024" xmlns="http://www.w3.org/2000/svg" width="200" height="200"><defs><style/></defs><path d="M256 408a54.857 54.857 0 1 0 109.714 0A54.857 54.857 0 1 0 256 408zm402.286 0A54.857 54.857 0 1 0 768 408a54.857 54.857 0 1 0-109.714 0zM512 0C229.257 0 0 229.257 0 512s229.257 512 512 512 512-229.257 512-512S794.743 0 512 0zm300.571 812.571c-39.085 39.086-84.571 69.715-135.2 91.2-52.228 22.172-107.885 33.372-165.371 33.372-57.486 0-113.143-11.2-165.486-33.372a423.314 423.314 0 0 1-135.2-91.2c-39.085-39.085-69.714-84.571-91.2-135.2C98.057 625.143 86.857 569.486 86.857 512s11.2-113.143 33.372-165.486a423.314 423.314 0 0 1 91.2-135.2c39.085-39.085 84.571-69.714 135.2-91.2C398.857 98.057 454.514 86.857 512 86.857c57.486 0 113.143 11.2 165.486 33.372a423.314 423.314 0 0 1 135.2 91.2c39.085 39.085 69.714 84.571 91.2 135.2 22.057 52.228 33.257 107.885 33.257 165.371s-11.2 113.143-33.372 165.486a421.589 421.589 0 0 1-91.2 135.085zM512 536c-97.714 0-177.829 76.914-182.857 173.257a9.143 9.143 0 0 0 9.143 9.6h54.971c4.8 0 8.914-3.657 9.257-8.457 4.343-56.571 51.772-101.257 109.486-101.257S617.257 653.829 621.486 710.4c.343 4.8 4.457 8.457 9.257 8.457h54.971a9.143 9.143 0 0 0 9.143-9.6C689.83 612.914 609.714 536 512 536z"/></svg>