<svg class="icon" viewBox="0 0 1024 1024" xmlns="http://www.w3.org/2000/svg" width="200" height="200"><defs><style/></defs><path d="M833.407 762.007c65.282 60.585 105.15 139.513 105.15 226.217 0 12.062-.784 23.981-2.28 35.724h-86.263c1.903-11.719 3.223-23.582 3.223-35.716 0-71.857-34.876-136.906-91.342-185.71-73.953 34.725-159.104 54.739-249.935 54.739-90.743 0-175.822-19.958-249.735-54.635-56.506 48.788-91.542 113.733-91.542 185.606 0 12.134 1.32 23.997 3.223 35.716H87.643a283.523 283.523 0 0 1-2.28-35.716c0-86.696 39.788-165.688 105.006-226.305C74.356 683.343.036 563.33.036 428.648.036 191.953 229.236.06 511.96.06s511.924 191.885 511.924 428.596c0 134.723-74.384 254.775-190.477 333.35zM511.96 294.958c-235.608 0-426.597-80.608-426.597 122.724 0 203.323 190.989 368.146 426.597 368.146 235.608 0 426.597-164.823 426.597-368.146 0-203.332-190.989-122.724-426.597-122.724zm199.084 205.131c-31.413 0-56.882-21.318-56.882-47.619s25.469-47.627 56.874-47.627c31.42 0 56.882 21.326 56.882 47.627s-25.461 47.62-56.874 47.62zm-28.445 130.963c0 32.877-76.393 59.53-170.639 59.53-94.238 0-170.639-26.653-170.639-59.53 0-8.48 5.248-16.51 14.399-23.806 26.357 21.006 86.311 35.717 156.24 35.717 69.937 0 129.883-14.719 156.232-35.717 9.16 7.296 14.407 15.327 14.407 23.806zM312.876 500.089c-31.413 0-56.874-21.318-56.874-47.619s25.461-47.627 56.874-47.627c31.413 0 56.882 21.326 56.882 47.627s-25.469 47.62-56.874 47.62z"/></svg>