<svg class="icon" viewBox="0 0 1024 1024" xmlns="http://www.w3.org/2000/svg" width="200" height="200"><defs><style/></defs><path d="M513.935 8.484C235.634 8.484 9.231 234.886 9.231 513.155c0 278.302 226.402 504.704 504.704 504.704s504.704-226.401 504.704-504.704c0-278.27-226.403-504.67-504.704-504.67zm0 956.16c-248.963 0-451.494-202.524-451.494-451.488 0-248.931 202.53-451.46 451.494-451.46s451.492 202.53 451.492 451.46c0 248.963-202.529 451.487-451.492 451.487zm190.36-487.783H549.874V322.795c0-14.687-20.792-26.606-35.478-26.606s-35.472 11.92-35.472 26.606V476.86h-155.35c-14.686 0-26.604 20.791-26.604 35.478 0 14.686 11.918 35.472 26.605 35.472h155.349v155.738c0 14.686 20.786 26.605 35.472 26.605s35.478-11.919 35.478-26.605V547.81h154.423c14.686 0 26.605-20.787 26.605-35.472 0-14.687-11.887-35.478-26.605-35.478zm0 0"/></svg>