<svg class="icon" viewBox="0 0 1024 1024" xmlns="http://www.w3.org/2000/svg" width="200" height="200"><defs><style/></defs><path d="M823.424 395.296l-287.52-289.248c-3.2-3.2-6.88-5.536-10.816-7.104C521.056 97.12 516.672 96 512 96c-11.264 0-20.704 6.176-26.4 14.976L231.2 364.928c-12.512 12.48-12.544 32.736-.032 45.248 6.24 6.272 14.432 9.376 22.656 9.376 8.16 0 16.352-3.104 22.624-9.344L480 206.976V768c0 17.696 14.336 32 32 32s32-14.304 32-32V204.96l234.048 235.456a31.937 31.937 0 0 0 22.688 9.44c8.16 0 16.32-3.104 22.56-9.312 12.544-12.448 12.608-32.704.128-45.248zM896 704c-17.696 0-32 14.304-32 32v128H160V736c0-17.696-14.336-32-32-32s-32 14.304-32 32v160c0 17.696 14.336 32 32 32h768c17.696 0 32-14.304 32-32V736c0-17.696-14.304-32-32-32z"/></svg>